<?xml version="1.0" encoding="utf-8"?>
<!-- Generator: Adobe Illustrator 26.5.0, SVG Export Plug-In . SVG Version: 6.00 Build 0)  -->
<svg version="1.1" id="Layer_1" xmlns="http://www.w3.org/2000/svg" xmlns:xlink="http://www.w3.org/1999/xlink" x="0px" y="0px"
	 viewBox="0 0 65.7 61.3" style="enable-background:new 0 0 65.7 61.3;" xml:space="preserve">
<style type="text/css">
	.st0{fill:#231F20;}
</style>
<g id="Layer_3">
	<path class="st0" d="M33.8,12.7h-1.7l-20,34.6l0.8,1.4h39.8l0.8-1.4L33.8,12.7z M40.1,32.4v8.2L37,43.7v-3.4l-0.3-0.7l-2.7-2.3
		v-4.4l5.8-5.8l5.1,8.9l-2.8,2.8v-6.3H40.1z M31.3,43.7l-12-5.1l4.3-7.5L35,40.8v6h-3.2v-2.1L31.3,43.7z M33.9,16.8l4.9,8.5
		l-4.9,4.9V16.8z M32,35.7l-2.1-1.8v-7h-1.9v5.3l-3.3-2.8L32,16.7V35.7z M18.3,40.3L30,45.2v1.5H14.6L18.3,40.3z M37,46.8v-0.3
		l8.9-8.8l5.2,9.1L37,46.8z"/>
</g>
</svg>
